<svg width="2610" height="1080" viewBox="0 0 2610 1080" fill="none" xmlns="http://www.w3.org/2000/svg">
<g clip-path="url(#clip0_12_4)">
<path d="M650.106 324.272L534.378 113.764L38.8827 955.335L284 955.167C426.583 708.787 507.523 570.652 650.106 324.272Z" fill="#252525"/>
<path d="M515.601 541H751L999.5 955.5L763.199 957.187L515.601 541Z" fill="#252525"/>
<path d="M554.967 955L647 759L387.688 758.914L330.844 856.957L284 955.167L554.967 955Z" fill="#252525"/>
<path d="M1454.59 704.277H1625.48C1623.21 753.757 1609.86 797.376 1585.45 835.137C1561.03 872.897 1527.18 902.357 1483.88 923.516C1440.91 944.349 1390.13 954.766 1331.54 954.766C1284.01 954.766 1241.53 946.79 1204.1 930.84C1166.99 914.889 1135.41 891.94 1109.37 861.992C1083.65 832.044 1063.96 795.749 1050.29 753.105C1036.94 710.462 1030.27 662.448 1030.27 609.062V570.488C1030.27 517.103 1037.27 469.089 1051.27 426.445C1065.59 383.477 1085.77 347.018 1111.81 317.07C1138.18 286.797 1169.76 263.685 1206.54 247.734C1243.32 231.784 1284.18 223.809 1329.1 223.809C1390.95 223.809 1443.19 234.876 1485.84 257.012C1528.48 279.147 1561.52 309.583 1584.96 348.32C1608.39 386.732 1622.23 430.514 1626.46 479.668H1455.56C1454.91 452.975 1450.35 430.677 1441.89 412.773C1433.43 394.544 1420.08 380.872 1401.85 371.758C1383.62 362.643 1359.37 358.086 1329.1 358.086C1307.94 358.086 1289.55 361.992 1273.92 369.805C1258.3 377.617 1245.28 389.987 1234.86 406.914C1224.44 423.841 1216.63 445.814 1211.42 472.832C1206.54 499.525 1204.1 531.751 1204.1 569.512V609.062C1204.1 646.823 1206.38 679.049 1210.93 705.742C1215.49 732.435 1222.82 754.245 1232.91 771.172C1243 788.099 1256.02 800.632 1271.97 808.77C1288.24 816.582 1308.1 820.488 1331.54 820.488C1357.58 820.488 1379.55 816.419 1397.46 808.281C1415.36 799.818 1429.2 787.122 1438.96 770.195C1448.73 752.943 1453.93 730.97 1454.59 704.277ZM2285.8 813.164V945H1906.89V813.164H2285.8ZM1967.93 234.062V945H1796.54V234.062H1967.93ZM2236.97 516.289V643.73H1906.89V516.289H2236.97ZM2287.26 234.062V366.387H1906.89V234.062H2287.26Z" fill="#252525"/>
</g>
<defs>
<clipPath id="clip0_12_4">
<rect width="2610" height="1080" fill="white"/>
</clipPath>
</defs>
</svg>
